<?xml version="1.0" standalone="no"?>
<!DOCTYPE svg PUBLIC "-//W3C//DTD SVG 20010904//EN"
 "http://www.w3.org/TR/2001/REC-SVG-20010904/DTD/svg10.dtd">
<svg version="1.0" xmlns="http://www.w3.org/2000/svg"
 width="700.000000pt" height="700.000000pt" viewBox="0 0 700.000000 700.000000"
 preserveAspectRatio="xMidYMid meet">
<metadata>
Created by potrace 1.14, written by Peter Selinger 2001-2017
</metadata>
<g transform="translate(0.000000,700.000000) scale(0.100000,-0.100000)"
fill="#000000" stroke="none">
<path d="M1257 5514 c-1 -1 -38 -4 -82 -7 -44 -4 -91 -9 -105 -12 -14 -3 -36
-7 -50 -10 -137 -25 -330 -111 -458 -203 -269 -192 -441 -450 -526 -787 -25
-97 -31 -170 -30 -345 0 -164 18 -296 59 -430 151 -506 501 -976 1130 -1519
17 -14 53 -44 80 -66 28 -21 52 -42 55 -45 17 -21 322 -241 465 -336 208 -138
434 -274 456 -274 55 0 643 392 928 618 93 74 112 90 175 144 17 15 34 28 37
28 3 0 14 -12 26 -28 42 -58 172 -192 262 -272 143 -127 406 -283 596 -353 82
-31 189 -64 227 -71 15 -2 31 -7 35 -9 5 -3 26 -8 48 -11 22 -4 65 -10 95 -16
126 -21 378 -29 485 -16 17 2 56 7 88 10 154 16 403 88 570 165 384 177 715
484 923 856 120 214 195 441 240 725 10 67 13 386 3 455 -4 33 -11 83 -14 110
-4 28 -18 97 -32 155 -170 702 -708 1265 -1399 1464 -66 19 -140 37 -164 41
-25 4 -47 8 -50 10 -3 2 -34 6 -70 10 -36 4 -78 9 -95 11 -53 6 -308 6 -370
-1 -52 -5 -154 -21 -250 -40 -131 -26 -351 -106 -485 -178 l-65 -35 -65 43
c-346 229 -763 280 -1155 143 -176 -62 -371 -187 -484 -310 l-34 -37 -79 74
c-229 216 -530 339 -851 348 -38 1 -69 2 -70 1z m208 -169 c293 -44 543 -194
755 -454 l35 -43 60 74 c122 148 236 241 390 317 169 83 325 120 511 119 210
0 441 -66 592 -170 l42 -29 -52 -36 c-91 -62 -235 -195 -334 -308 -265 -305
-438 -700 -480 -1095 -15 -149 -11 -360 10 -510 35 -247 129 -514 258 -732
l46 -76 -29 -27 c-70 -62 -335 -269 -454 -355 -142 -102 -328 -226 -471 -313
l-91 -55 -62 39 c-34 21 -64 39 -67 39 -9 0 -380 250 -469 315 -85 62 -280
214 -329 255 -142 120 -203 176 -351 323 -93 93 -195 198 -225 234 -30 36 -60
71 -65 77 -6 6 -24 29 -40 51 -17 22 -36 46 -43 53 -6 8 -41 55 -76 105 -307
442 -423 872 -345 1277 58 302 243 583 494 752 90 60 256 134 345 153 18 4
150 25 175 28 40 5 220 -1 270 -8z m3805 -9 c52 -9 110 -20 128 -25 18 -5 35
-10 37 -10 14 0 130 -36 205 -64 363 -134 688 -396 903 -728 147 -226 240
-473 281 -744 27 -179 24 -393 -9 -589 -16 -92 -37 -172 -81 -297 -151 -434
-484 -816 -899 -1029 -402 -207 -866 -260 -1310 -148 -241 60 -503 192 -709
358 -74 60 -232 219 -279 281 l-27 36 158 159 c196 196 238 244 366 414 239
317 386 621 442 916 22 116 23 129 28 259 13 356 -111 709 -338 961 -35 39
-43 54 -33 62 44 37 309 133 457 166 199 45 484 54 680 22z m-1124 -479 c131
-199 194 -404 200 -652 3 -156 -5 -233 -41 -381 -37 -150 -133 -380 -208 -499
-181 -287 -307 -445 -550 -689 l-129 -130 -25 40 c-115 186 -213 466 -248 709
-15 104 -17 372 -4 460 5 33 11 79 14 102 9 70 72 287 110 380 130 316 337
583 613 791 l97 73 62 -66 c34 -36 83 -98 109 -138z"/>
</g>
</svg>
